/* XPM */
static char *_4ba11c47c6c422f93191012e595990eDXHGFqVLLYRsoEI9[] = {
/* columns rows colors chars-per-pixel */
"50 50 108 2 ",
"   c None",
".  c #040402",
"X  c #000A00",
"o  c #330E01",
"O  c #411700",
"+  c #431A00",
"@  c #4C1C00",
"#  c #5E1F00",
"$  c #5D2600",
"%  c #612600",
"&  c #6A2A00",
"*  c #752E00",
"=  c #792D01",
"-  c #773000",
";  c #7B3200",
":  c #673D26",
">  c #704635",
",  c #843500",
"<  c #8B3600",
"1  c #843800",
"2  c #8D3B00",
"3  c #803A0D",
"4  c #8F3F0F",
"5  c #973500",
"6  c #933B00",
"7  c #9D3F00",
"8  c #964000",
"9  c #9D4200",
"0  c #8C441B",
"q  c #A24301",
"w  c #AB4200",
"e  c #A54800",
"r  c #AC4A00",
"t  c #B34C00",
"y  c #BD4C02",
"u  c #B75200",
"i  c #BC5403",
"p  c #8A522E",
"a  c #975233",
"s  c #BE643C",
"d  c #C54C02",
"f  c #CC4E01",
"g  c #D24E00",
"h  c #C45200",
"j  c #CB5400",
"k  c #C65800",
"l  c #CA5A00",
"z  c #D45201",
"x  c #DB5301",
"c  c #D55B00",
"v  c #DB5C01",
"b  c #D6560B",
"n  c #D7580E",
"m  c #DE5A0C",
"M  c #DC5A12",
"N  c #D75C1E",
"B  c #DA5D1C",
"V  c #E25500",
"C  c #E45B00",
"Z  c #EA5D00",
"A  c #F05E00",
"S  c #D66000",
"D  c #D96201",
"F  c #D9681F",
"G  c #E56400",
"H  c #EB6300",
"J  c #EC6A01",
"K  c #F46300",
"L  c #F96500",
"P  c #F56C00",
"I  c #FE6B00",
"U  c #FE7301",
"Y  c #FF7B00",
"T  c #FF7C0E",
"R  c #F47213",
"E  c #FF7C13",
"W  c #FE771E",
"Q  c #FF7E1C",
"!  c #D55C20",
"~  c #DB5E22",
"^  c #D6642D",
"/  c #D9632B",
"(  c #C3673B",
")  c #DF6D37",
"_  c #D16838",
"`  c #DA6E3B",
"'  c #D9703F",
"]  c #E4672E",
"[  c #FC7524",
"{  c #F87C21",
"}  c #E06F3E",
"|  c #E07C3F",
" . c #905E45",
".. c #D96F42",
"X. c #DD774A",
"o. c #DD784A",
"O. c #FF852F",
"+. c #FF8230",
"@. c #F5863E",
"#. c #FF8D44",
"$. c #FF9046",
"%. c #FF914A",
"&. c #E18258",
"*. c #EC865A",
"=. c #F29257",
"-. c #FF9753",
";. c #FD9759",
":. c #FF9B5A",
/* pixels */
"                                                                                                    ",
"                                                                                                    ",
"                                                                                                    ",
"                                                                                                    ",
"                                                                                                    ",
"                                                                                                    ",
"                                                                                                    ",
"                                                                                                    ",
"                                                                                                    ",
"                                                                                                    ",
"                                              $.$.$.$.#.-.                                          ",
"                                        | +.T U U U U I v 0 >                                       ",
"                                    @.3 U U I U R U I q . q Z I [                                   ",
"                                :.Q U * J U U U U I t X v U I I L A ]                               ",
"                              #.Y U D - P U U U U H O j I I I I I L A m                             ",
"                            :.Y U U S 8 U U U U U r & L I I I I I I K C M                           ",
"                            { U U U G 1 U U U U J o j I I I I I I I L C x                           ",
"                          #.U U U U J ; U U U U r * L I I I I I I I I K x n                         ",
"                          T I U U U P ; P U U U 8 k U I I I G z c c c z x V )                       ",
"                        #.U U U U U U 1 J U U Y 8 l C 9 < 2 % 2 6 6 5 , & = 4                       ",
"                        / Y Y U U U U ; D Y P D ; $ = q v c G I I I I L f d 5  .                    ",
"                      =.9 9 P Y I U U u 9 D % * r & v U I I I I I I I I Z x g ~                     ",
"                      $.U i 8 P U U U S $ % i U I c < P I I I I I I I L C z g N                     ",
"                      %.U T l 8 U Y c O + k Y I I I j < Z I I I I I I L C x g !                     ",
"                      %.U U Y 9 u r o c t e U I I I I c * h L U I I I L C x f !                     ",
"                      %.U R U G . 2 G U G $ H I I I I I K 9 , h H I I K V z g !                     ",
"                      $.Y U U 9 + l U U Y 2 t I L I I I I U C q , 6 h H C V g N                     ",
"                      $.U U k 1 l 8 U U U G @ H I I I I I I I I K v 7 * 6 y f B                     ",
"                        E v o G U 1 G U L U e ; L I I I I I I I I I K z w = = a                     ",
"                        { * l U Y q i U I I I , 9 I I I I I I I I K Z Z x x d s                     ",
"                        p 9 U I I v < I I I I K $ i I I I I I I K K Z V z g n                       ",
"                          R I I I v 2 I I I I I C O z I I I I L K Z C x z g `                       ",
"                          +.U I U v 6 I I I I I I x + y I I I K Z Z x z f v                         ",
"                            [ I I j < I I I I I I I H $ 7 I L Z x x z f x '                         ",
"                              [ I 2 9 I I I I I I L I K ; , c V x z f x ..                          ",
"                                W , n I I I I I I I K K C w % < d z x ..                            ",
"                                  : Z L A L L K K Z V x x V f 5 % q _                               ",
"                                    *.] A V x V x b b z g f x M (                                   ",
"                                        *.} / B M x x ~ ! ^ o.                                      ",
"                                                  X.o.                                              ",
"                                                                                                    ",
"                                                                                                    ",
"                                                                                                    ",
"                                                                                                    ",
"                                                                                                    ",
"                                                                                                    ",
"                                                                                                    ",
"                                                                                                    ",
"                                                                                                    ",
"                                                                                                    "
};
