/* XPM */
static char *b03de4abfc93482ff68f95fffee75cc3guY8AtPNbRHHTn0D[] = {
/* columns rows colors chars-per-pixel */
"50 50 171 2 ",
"   c None",
".  c black",
"X  c #040404",
"o  c #060606",
"O  c gray4",
"+  c gray8",
"@  c #161616",
"#  c #191919",
"$  c gray10",
"%  c #1B1B1B",
"&  c gray11",
"*  c #1D1D1D",
"=  c #1E1E1E",
"-  c gray12",
";  c #202020",
":  c gray13",
">  c #222222",
",  c #232323",
"<  c gray14",
"1  c #252525",
"2  c gray15",
"3  c #272727",
"4  c #282828",
"5  c gray16",
"6  c #2A2A2A",
"7  c gray17",
"8  c #2C2C2C",
"9  c #2D2D2D",
"0  c gray18",
"q  c #2F2F2F",
"w  c gray19",
"e  c #313131",
"r  c #323232",
"t  c gray20",
"y  c #343434",
"u  c #353535",
"i  c gray21",
"p  c #373737",
"a  c gray22",
"s  c #393939",
"d  c #3A3A3A",
"f  c gray23",
"g  c #3C3C3C",
"h  c gray24",
"j  c #3E3E3E",
"k  c #3F3F3F",
"l  c gray25",
"z  c #414141",
"x  c gray26",
"c  c #434343",
"v  c #444444",
"b  c gray27",
"n  c #464646",
"m  c gray28",
"M  c #484848",
"N  c #494949",
"B  c gray29",
"V  c #4B4B4B",
"C  c #4C4C4C",
"Z  c gray30",
"A  c #4E4E4E",
"S  c gray31",
"D  c #505050",
"F  c #515151",
"G  c gray32",
"H  c #535353",
"J  c gray33",
"K  c #555555",
"L  c #565656",
"P  c gray34",
"I  c #585858",
"U  c gray35",
"Y  c #5A5A5A",
"T  c #5B5B5B",
"R  c gray36",
"E  c #5D5D5D",
"W  c gray37",
"Q  c #5F5F5F",
"!  c #606060",
"~  c gray38",
"^  c #626262",
"/  c gray39",
"(  c #646464",
")  c #656565",
"_  c gray40",
"`  c #676767",
"'  c DimGray",
"]  c #6A6A6A",
"[  c gray42",
"{  c #6C6C6C",
"}  c #6D6D6D",
"|  c gray43",
" . c #6F6F6F",
".. c gray44",
"X. c #717171",
"o. c #727272",
"O. c gray45",
"+. c #747474",
"@. c gray46",
"#. c #767676",
"$. c #777777",
"%. c #797979",
"&. c gray48",
"*. c #7B7B7B",
"=. c #7C7C7C",
"-. c #7E7E7E",
";. c #808080",
":. c #818181",
">. c #838383",
",. c #848484",
"<. c gray52",
"1. c #868686",
"2. c gray53",
"3. c #888888",
"4. c #898989",
"5. c gray54",
"6. c #8B8B8B",
"7. c gray55",
"8. c #8D8D8D",
"9. c #8E8E8E",
"0. c gray56",
"q. c #909090",
"w. c gray57",
"e. c #929292",
"r. c #939393",
"t. c gray58",
"y. c #959595",
"u. c gray59",
"i. c #979797",
"p. c #989898",
"a. c gray60",
"s. c #9A9A9A",
"d. c #9B9B9B",
"f. c gray61",
"g. c #9D9D9D",
"h. c gray62",
"j. c #9F9F9F",
"k. c #A0A0A0",
"l. c gray63",
"z. c #A2A2A2",
"x. c gray64",
"c. c #A4A4A4",
"v. c #A5A5A5",
"b. c gray65",
"n. c gray66",
"m. c #AAAAAA",
"M. c #ACACAC",
"N. c #AEAEAE",
"B. c gray69",
"V. c #B1B1B1",
"C. c gray70",
"Z. c #B4B4B4",
"A. c gray71",
"S. c #B6B6B6",
"D. c #B7B7B7",
"F. c gray72",
"G. c #B9B9B9",
"H. c gray73",
"J. c #BBBBBB",
"K. c #BCBCBC",
"L. c #C0C0C0",
"P. c #C1C1C1",
"I. c gray76",
"U. c #C3C3C3",
"Y. c gray77",
"T. c #C5C5C5",
"R. c #C6C6C6",
"E. c gray78",
"W. c #C8C8C8",
"Q. c gray79",
"!. c gray80",
/* pixels */
"                                                                                                    ",
"                                                                                                    ",
"                                                                                                    ",
"                                                                                                    ",
"                                                                                                    ",
"                                            v H P P H B                                             ",
"                                        H @ 0 1 1 1 1 0 * Z                                         ",
"                                      5 0 f I ! E E ! E j 5 0 H                                     ",
"                                  f $ j P _ H P H H H H ! ! x 1 e                                   ",
"                          e i j 0 x P _ Z x $.$.$.$.$.$.v v _ P x 5 f e i                           ",
"                          i e 5 B ! ' Z %.,.V.G.G.G.G.G.z.:.H _ _ B 0 e i H                         ",
"                      x * P E E H P H I h.z.q.q.q.q.q.q.m.D.,.x P P I ! I 5 f                       ",
"                      v ; I ! ! ' _ ,.N.q.i.a.i.i.a.a.a.q.q.V.,._ ' E ! E 1 x                       ",
"                      v * P I E G.G.D.a.i.a.i.i.i.a.i.i.i.i.i.V.D.T.5.B ! ; j                       ",
"                      v $ P I x q.q.q.i.a.a.a.i.i.i.a.a.i.i.a.i.5.D.5.B ! 1 j                       ",
"                      v ; P ! B a.i.H x j i f $.a.j | a.H j e 7.i.D.,.B E 1 j                       ",
"                      v * P I B i.a.E . v ! . | a.. E h.0 5 ! =.,.D.5.B E 1 j                       ",
"                      B * I E B i.a.q.X P O.. | a.$ ! h.f f O.* x G.,.Z ! 1 j                       ",
"                      v * I E B i.a.5.@ . . . $.a.@ ! a.x . . O Z G.,.v E 1 j                       ",
"                      B * P I B i.a.7.. | H j 7.i.* _ a.e I a.7.7.D.7.B ! 1 x                       ",
"                      B * P E B i.a.q.. O.H . ' h.. E h.1 P a.a.q.G.5.B ! ; x                       ",
"                      B * P E v i.i.q.%.7.:.%.5.i.=.,.i.=.5.i.a.7.D.,.B ! ; x                       ",
"                      B * P I B i.i.h.z.h.h.h.h.h.z.h.a.a.a.i.a.q.G.5.B ! ; v                       ",
"                      B * I E B i.i.$.O.$.$.$.O.O.O.O.5.h.a.i.i.7.G.,.B E 1 v                       ",
"                      B * P E v a.i.| | | O.| $.O.O.O.7.z.h.a.h.7.G.,.B E ; v                       ",
"                      B * P I Z a.a.z.z.i.i.q.q.i.q.i.q.5.7.7.i.i.V.,.Z ! ; v                       ",
"                      B $ P I Z a.a.i.a.%.I _ _ _ ! _ _ _ ' _ q.i.D.,.B ! ; B                       ",
"                      B $ I E B a.i.a.a.,.| O.| | | ' O.O.| | q.i.G.,.B ! ; B                       ",
"                      Z * P E v i.7.7.q.:.| O.O.O.$.O.O.O.O.O.5.7.D.5.B ! ; B                       ",
"                      B $ P E B a.O.H I E ! E ! ! ! ! ! ! ! ! I E D.,.Z ! ; B                       ",
"                      B * I E B i.i.a.a.a.i.i.i.i.i.i.i.i.i.a.a.i.D.5.B E ; v                       ",
"                      B * P I B i.i.i.i.q.i.i.i.i.i.i.i.i.i.i.i.q.D.,.Z ! ; B                       ",
"                      B * P I B a.h.a.h.h.a.a.h.h.a.h.h.a.h.a.h.i.D.,.v ! ; v                       ",
"                      B * P E B a.:.| O.| O.O.| | O.O.| O.| O.| O.D.5.B ! 1 B                       ",
"                      Z * P I v i.=.| O.O.O.O.O.O.O.O.O.O.O.O.| O.G.,.B ! ; v                       ",
"                      B * P E Z i.h.a.a.a.h.a.a.a.a.a.a.h.a.h.h.i.D.,.B ! ; x                       ",
"                      I ; E ! Z h.h.h.h.h.h.a.h.h.h.h.a.h.h.h.h.i.G.7.H ! 5 B                       ",
"                      X . 0 e ; ! _ ! _ _ ! _ _ _ ! ! _ _ ! ! _ _ %.H * f . .                       ",
"                    m.W.T.T.T.T.I.I.I.I.I.I.I.I.I.I.T.I.I.I.T.T.I.I.I.T.I.W.!.D.                    ",
"                    ,.N.h.v.v.z.v.v.z.v.v.z.v.z.z.v.z.v.z.v.z.v.v.v.v.v.z.h.m.q.P                   ",
"                  Z ! P I I I I I E E I E I I E I I I I I I E I I I I I E I I E P                   ",
"                  5 x j j j x j f j f j f j f f j f j j j f f f j j j j j j j j f                   ",
"                H i ; * * * ; 1 1 5 1 5 5 0 5 0 0 0 0 0 0 0 0 0 5 5 5 5 1 5 5 5 i P H               ",
"                                                                                                    ",
"                                                                                                    ",
"                                                                                                    ",
"                                                                                                    ",
"                                                                                                    ",
"                                                                                                    ",
"                                                                                                    "
};
