/* XPM */
static char *ildk5r8hc9b611679329198[] = {
/* columns rows colors chars-per-pixel */
"50 50 22 1 ",
"  c #4B80FF",
". c #4D82FF",
"X c #4F83FF",
"o c #5184FF",
"O c #5185FF",
"+ c #5385FF",
"@ c #5788FF",
"# c #5A8AFF",
"$ c #5B8CFF",
"% c #5C8CFF",
"& c #5D8DFF",
"* c #608FFF",
"= c #6291FF",
"- c #6493FF",
"; c #6794FF",
": c #6795FF",
"> c #6996FF",
", c #6B98FF",
"< c #6C98FF",
"1 c #6C99FF",
"2 c #709BFF",
"3 c #719DFF",
/* pixels */
":>1<<<<<<<<<<<<<<<<<<<<<<<<<<<<<1<<<<<<<<<<<>1&.OO",
"=:1<<<<<<<<<<11<1111<<<<<<<<<<<<1<1<<<<<<<<<<2*oOO",
"=:11<<<<<<<<<1<<1<><1<<<<<<<<<<1>>>1<<<<<<<1><%o+O",
"-:11<<<<<<<1<----+.>1<<<<<<<<<<1>o#1<<<<<111&ooOO+",
"=:1><<<111111>---#o-1<<<<<<<<<<1>.#1<<<<1<12*.OO+O",
"=:>>1<1>1=%%&####Oo>1<<<<<<<<<<1-o#<<<<<<1-##OOOOO",
":==>11112&.o.Oooooo>2<<1<<1<1<11>.#1<<11<2*.oOOO+O",
"=:=:<>>>>#oOOO+OOOo-><<<<<<<<>>>=o#1<1>>>1*oOOOOOO",
"----:#XOOOOOO+O+O+OoO>1<>111>Ooo+o#1<1- &2&o+O+O+O",
"---=:#.OOOOO+O+O+O+oO>1<1111>OoOOo#112-.&3=OOOOOOO",
"-----=&#O+OOO+O+OOO++##%&%#%%O+OOo+%%##o@&+O+OOO+O",
"------:#OO+O+O+OOOOOOoooo.o.oO+OOOoooo.OO.o+OO+OOO",
"-----=-&++oO+OO+OO+OOO+O+O+OoOO++OOO+OOOOO+O+O+O+O",
"--------:%OOO++OOO+OO+O+O+O+OOOOO+O+O+O+O+OOO+OOOO",
"-=-----=-#OOO+O+OOO+OO+OOO+O+O+O+OOOOOOO+OO++O+O+O",
">>-------#.OOO+OOO+OO+O+OOO+OOOOO+O+OOO+O+OOO+OOOO",
"<>-------#o+OO+OOOO+OO+OOO+O+O+O+OOOOOOO+OO++O+O+O",
"<>-----==@oOO+O+OO+OO+O+OOO+OOOOO+O+OOO+O+OOO+OOOO",
"1>-;1<1*.OOO+O+OOOO+OO+OOO+O+O+O+OOOOOOO+OO++O+O+O",
"1>=>1<2&.++OO+O+OO+OO+O+OOO+OOOOO+O+OOO+O+OOO+OOOO",
"1<>><<1>;%oOOOOOOO+OO++OOO+O+O+O+OOOOOOO+OOO+OOO+O",
"<111<<<12&.ooo+OOOO+OOO+OOO+OOOOO+O+OOO+O+O+O++OOO",
"<<11<<<<1=+&%OoOOO+OOO+OOO+O+O+O+OOOOOOO+OOO+O+O+O",
"<<<<<<<<<1111%oOO+O+O+O+OOO+OOOOO+O+OOO+O+O+O+OOOO",
"<<<<<<<<<<<<1#.o+O+OOO+OOO+O+O+O+OOOOOOO+OOO+O+O+O",
"<<<<<<<<<<<<<>>#oOO+O+O+OOO+OOOOO+O+OOO+O+O+O+OOOO",
"<<<<<<<<<<<<<11#ooOOO++OOO+O+O+O+OOOOOOO+OOO+OOO+O",
"<<<<<<<<<<<<<>1%oOO+OOO+OOO+OOOOO+O+OOO+O+O+O++OOO",
"<<<<<<<<<<<<<<1#o+OO+O+OOOO++O+O+OOOOOOO+OO++O+O+O",
"<<<<<<<<<<<<<<1#.o+OOOO+OO+OOOOOO+O+OOO+O+OOO+OOOO",
"<<<<<<<<<<<<<<1>-#oOoOOo+OO++O+O+OOOOOOO+OO++O+O+O",
"<<<<<<<<<<<<<<<12@.+oooooO+OOOOOO+O+OOO+O+OOO+OOOO",
"<<<<<<<<<<<<<<<<<*%+o%%%%OO++O+O+OO+OOOO+OOO+O+OOO",
"<<<<<<<<<<<<<<<<<21@o>21<OoOO+OOO+OOOOO+O+O+O+OO+O",
"<<<<<<<<<<<<<<<<<<1+o>1<>+o+OO+O+OO+OOOO+OOO+O+OOO",
"<<<<<<<<<<<<<<<<<<<>>>1<1>;Oo+OOO+OOOOO+O+O+O+OO+O",
"<<<<<<<<<<<<<<<<<<<211<<111+oOOO+OOOOOOO+OOO+O+OOO",
"<<<<<<<<<<<<<<<<<<<<<<<<11>+oO+OO+O+OOO+O+O+O+OO+O",
"<<<<<<<<<<<<<<<<<<<<<<<<<1>+oO+O+OOOOOOO+OOO+O+OOO",
"<<<<<<<<<<<<<<<<<<<<<<<<<1>+o+OOO+O+OOO+O+O+O+OO+O",
"<<<<<<<<<<<<<<<<<<<<<<<<<1>Oo+OO+OOOOOOO+OOO+O+OOO",
"<<<<<<<<<<<<<<<<<<<<<<<<<1<+oO+OO+O+OOO+O+O+O+OO+O",
"<<<<<<<<<<<<<<<<<<<<<<<1<=*OoO+O+OOOOOOO+OOO+O+OOO",
"<<<<<<<111<<<<<<<<<<<<<1>ooO+OOOO+O+OOO+O+O+O+OO+O",
"<<<<<<<<<<11<<<<<<<<<<11<+O+O+OO+OO+OOOO+OOO+O+OOO",
"<<<<1<1*o-1><<<<<<<<<<<1>+OO+O+OO+OOOOO+O+O+O+OO+O",
"<<<<113& =2<<<<<<<<<<<<11+O+OO+O+OO+OOOO+OOO+O+OOO",
"<<<<1-*#.=1<<<<<<<<<<11**+OO+OOOO+OOOOO+O+O+O+OO+O",
"<<<<1*.oo*1>1<<<<<<<<1<O.+OO+OOO+OOOOOO++OOO+OOO+O",
"<<<<2*oOo*2<<<<<<<<<<11+O++OOO+OO+O+OOOOO+O+O++OOO"
};
