/* XPM */
static char *a0f2cff9371c43768071584737ecb1d0M27qKSLT40jThNEC[] = {
/* columns rows colors chars-per-pixel */
"50 50 239 2 ",
"   c #370C2F",
".  c #331127",
"X  c #4A0E11",
"o  c #671400",
"O  c #63220F",
"+  c #6A2817",
"@  c #782D19",
"#  c #7B341D",
"$  c #43182C",
"%  c #422529",
"&  c #4C2C2D",
"*  c #4F302F",
"=  c #57372C",
"-  c #492A35",
";  c #4A333A",
":  c #543334",
">  c #5A3635",
",  c #55343A",
"<  c #5A3838",
"1  c #5D3A3B",
"2  c #672C27",
"3  c #6F362C",
"4  c #673734",
"5  c #623D3B",
"6  c #69480D",
"7  c #7D5B08",
"8  c #7C5B19",
"9  c #5D4739",
"0  c #6C4828",
"q  c #764F2D",
"w  c #6C4734",
"e  c #65423D",
"r  c #6A453E",
"t  c #735537",
"y  c #77613B",
"u  c #191754",
"i  c #382E54",
"p  c #28166A",
"a  c #301872",
"s  c #353071",
"d  c #4C0853",
"f  c #5B145A",
"g  c #631C54",
"h  c #473548",
"j  c #5B3B46",
"k  c #483A59",
"l  c #513F51",
"z  c #683B48",
"x  c #692A54",
"c  c #590062",
"v  c #531970",
"b  c #680769",
"n  c #661468",
"m  c #6B0970",
"M  c #760B76",
"N  c #791477",
"B  c #463C67",
"V  c #4A2E71",
"C  c #552A7B",
"Z  c #6D316E",
"A  c #394B79",
"S  c #484657",
"D  c #564354",
"F  c #5A5155",
"G  c #694543",
"H  c #6C4943",
"J  c #6A4848",
"K  c #714C45",
"L  c #724848",
"P  c #75534B",
"I  c #765648",
"U  c #78554D",
"Y  c #79594F",
"T  c #695653",
"R  c #755456",
"E  c #7B5C51",
"W  c #6F624F",
"Q  c #7E6155",
"!  c #47426A",
"~  c #464877",
"^  c #545675",
"/  c #71526D",
"(  c #5A647C",
")  c #696664",
"_  c #6A6865",
"`  c #716E6A",
"'  c #73706C",
"]  c #88351B",
"[  c #91361C",
"{  c #893822",
"}  c #983B23",
"|  c #825809",
" . c #875F13",
".. c #8D6905",
"X. c #987406",
"o. c #926D14",
"O. c #A37901",
"+. c #A37919",
"@. c #974725",
"#. c #8B5B2E",
"$. c #A64527",
"%. c #876128",
"&. c #96702C",
"*. c #876336",
"=. c #94693B",
"-. c #B46930",
";. c #A67C38",
":. c #BC7233",
">. c #800E7F",
",. c #841A77",
"<. c #8A2F69",
"1. c #8C5C4E",
"2. c #8D6B47",
"3. c #936A44",
"4. c #85675A",
"5. c #98755C",
"6. c #AC7A49",
"7. c #A2675A",
"8. c #A57259",
"9. c #8F5E74",
"0. c #917176",
"q. c #AA7A65",
"w. c #A98505",
"e. c #B38D02",
"r. c #B28B0E",
"t. c #B99405",
"y. c #BD9A03",
"u. c #AB8818",
"i. c #B38A16",
"p. c #9C8429",
"a. c #A68233",
"s. c #B28B31",
"d. c #C39D01",
"f. c #C59A1A",
"g. c #C6A303",
"h. c #C9A603",
"j. c #CDAA01",
"k. c #D1AD03",
"l. c #D0AB0A",
"z. c #D6B403",
"x. c #D9B706",
"c. c #DCBB03",
"v. c #DBB917",
"b. c #E0BD02",
"n. c #C79B3B",
"m. c #D0AC2C",
"M. c #CBA536",
"N. c #DAB937",
"B. c #E4C303",
"V. c #EAC902",
"C. c #E4C30A",
"Z. c #E5C415",
"A. c #E4C731",
"S. c #BA8F4C",
"D. c #B5956E",
"F. c #B79173",
"G. c #C29948",
"H. c #C19B55",
"J. c #D1AF4C",
"K. c #C09967",
"L. c #C7A66B",
"P. c #D3B27A",
"I. c #263888",
"U. c #4B3288",
"Y. c #3B4A89",
"T. c #3C5395",
"R. c #3A48A0",
"E. c #3A57A6",
"W. c #395CB4",
"Q. c #3C65B9",
"!. c #494E81",
"~. c #4A5886",
"^. c #484299",
"/. c #485493",
"(. c #545A91",
"). c #685A90",
"_. c #596A91",
"`. c #686C86",
"'. c #4D58A3",
"]. c #485AB7",
"[. c #5868A5",
"{. c #556DAA",
"}. c #5B72AD",
"|. c #4867B7",
" X c #526FB4",
".X c #6578A8",
"XX c #6373B2",
"oX c #3E66C6",
"OX c #4569C7",
"+X c #436ACB",
"@X c #4F70CE",
"#X c #5576C7",
"$X c #476ED4",
"%X c #4975DB",
"&X c #5379D4",
"*X c #6377C9",
"=X c #4977E4",
"-X c #4B7BEC",
";X c #527FE6",
":X c #4D7EF3",
">X c #855083",
",X c #976E8D",
"<X c #A47D8B",
"1X c #6780BC",
"2X c #5783CD",
"3X c #5D82DB",
"4X c #6383CE",
"5X c #6788D4",
"6X c #5281E5",
"7X c #4E81F5",
"8X c #4E82FE",
"9X c #5484F1",
"0X c #5285FF",
"qX c #5688FF",
"wX c #5B8CFF",
"eX c #648BE7",
"rX c #618FFE",
"tX c #6792F4",
"yX c #6493FF",
"uX c #6B96FD",
"iX c #6C98FF",
"pX c #719CFF",
"aX c #BB9B88",
"sX c #B79899",
"dX c #AE93A1",
"fX c #BFA4A8",
"gX c #C29A8D",
"hX c #C8A48C",
"jX c #DABD8A",
"kX c #C7AA98",
"lX c #CDB098",
"zX c #D4B599",
"xX c #C8AEAC",
"cX c #CDB2A5",
"vX c #DCC097",
"bX c #D5C1AF",
"nX c #D8C6B9",
"mX c #DCC9C5",
"MX c #ECE0D8",
/* pixels */
"yXuXiXiXiXiXiXiXiXiXiXiXiXiXiXiXiXiXiXiXiXiXiXiXiXiXuXuXuXuXuXuXuXiXiXiXiXiXiXuXiXiXiXiXiXiXrX8X0X0X",
"yXyXiXiXiXiXiXiXiXiXiXiXiXiXiXiXiXiXiXiXuXiXuX#X!.B B A  XeXuXuXiXiXiXiXiXiXiXiXiXiXuXiXiXiXwX0X0X0X",
"yXuXiXiXiXiXiXiXiXiXiXiXiXiXiXyXiXyXiXiXiX3Xk > G G G G 5 ; '.pXiXuXuXuXiXuXiXiXiXiXiXiXiXiXwX8X0X0X",
"yXyXiXiXiXiXiXiXiXiXiXiXiXyXyXyXyXwX0XyXeXh G U E E Q Q Y H > ~ yX8XwXuXiXiXiXiXiXiXiXiXrX8X0X0X0X0X",
"yXiXiXiXiXiXiXiXiXiXiXiXiXyXyXyXyXwX8XuX X* U E E Q 4.4.E I G % |.0XwXuXiXiXiXiXiXiXiXiXyX8X0X0X0X0X",
"yXyXyXiXiXiXiXiXiXyXrXwXwXwXwXwXwX0X8XyX#X& e K Y E E I 9 e e & {.8XwXuXiXiXiXuXiXiXyXwXqX8X0X0X0X0X",
"yXyXyXyXiXiXiXiXpXwX8X0X0X8X8X0X8X8X0XtXD * D D e E e . / j > G D -XwXiXuXiXuXiXiXiXyX8X0X0X0X0X0X0X",
"yXyXyXyXiXiXyXyXyXwX0X0X0X0XqX0X0X0X0XrXk = R E K Q P K 0.R < < l :XwXiXiXiXuXuXiXiXrX8X0X0X0X0X0X0X",
"yXyXyXrXyXwX8X0X0X0X0X0X0X0X0X0XqX0X0X0X%Xi r I I I P E w r , Y.:X0XwXiXuXiXyX8XwXpXyX8X0X0X0X0X0X0X",
"yXyXyXyXyXwX8X0X0X0X0X0X0X0X0X0X0X0X0X:X0X X; K H < H H j & ~ 0X0X:XwXiXiXiXyX:XyXpXwX8XqX0X0X0XqX0X",
"yXyXyXyXyXyXrXqX0X0X0X0X0X0X0X0X0X0X0X0X0XwX6XS G G G < * % $X8X0X0X0XwXrXwXqX0XqXwXqX0X0X0X0X0X0X8X",
"yXyXyXyXyXyXyXqX8X0X0X0X0X0X0X0X0X0X0X0X@X+XOXi ; : * , r 9 s V ) `.$XoX=X0X0X:X0X8X0X0X0X0X0X0X0X0X",
"yXyXyXyXyXyXyXwXqX0X0X0X0X0X8X0X%XB B l +...  , e e e r H 1 > e.b.y.* > j ! @X8X0X0X0X0X0X0X0X0X0X0X",
"yXyXyXyXyXyXyXyXyXwX8X0X0X0X8X'.> U 1.3 e.x.w.e K e H I H %.y.N.A.y.r 1.K K % OX0X0X0X0X0X0X0X0X0X0X",
"yXyXyXyXyXyXyXyXyXwX8X0X0X0XQ.& P 4.E t h.B.B.y.*.J T K p.z.z.D.L.w.K 4.Q P r ; 0X0X0X0X0X0X0X0X0X0X",
"yXyXyXyXyXyXyXyXyXwX0X0X7X0XT.1 L P G 0 h.C.B.B.z.w.o.j.B.V.B.A.N.O.= P P H r * OX0X0X0X0X0X0X0X0X0X",
"iXuXyXyXyXyXyXyXyXwX:X0X0X0X! < 5 1 - 6 s.S.v.M.N.M.6.G.M.H.G.G.m.+.: * > G <.x f U.qX0X0X0X0X0X0X0X",
"iXuXyXyXyXyXyXyXrXqX0X0X0XY.1 P P 5   5.8.8.8.9.<.D.,.S.7.q.7.7.s.H.<Xu !.f U.M >.b E.qX9X0X0X0X0X0X",
"iXuXyXyXiXiXiXrX0X0X0X0XW.= P Y K < . sX6.8.G.J.H.b.v.M.G.v.n.6.;.aX9.s 8XV N ,.N N f oX0X0X0X0X0X0X",
"iXyXyXyXiXiXiXrX:X0X0X-Xk 5 K r * /.R.0.K.h.G.lXnXjXh.bXmXn.z.h.S.xXb U.0X7XU.m N N b V -X0X0X0X0X0X",
"iXiXiXiXuXiXiXuXyXwX'.j 4 , 1 h +X0XW.Z aXe.n.D.cXkXxXmXMXgXk.d.lX,Xd %X0X0X8XA n M m N s 0X0X0X0X0X",
"iXiXiXiXiXiXuXiXeX! r P G 5 - oX0X0XW./ gXy.n.nXMXzXhXzXmXgXz.d.cX>Xd =X0X8XQ.v n M M b oX0X0X0X0X0X",
"iXiXiXiXiXuXiXeXS K K 1 z h OXqX0X0XW.x F.e.i.f.M.M.k.k.d.j.h.e.F.9.I.:X0XOXf N ,.U.M '.0X:X0X0X0X0X",
"iXiXiXiXuXuXeX; z < # + + + / '.0X0X0X].> 4 4 *.%.%.#.*.#.#.#.z x V :X:X].f N ,.,.n '.:X0X0X0X0X0X0X",
"iXiXiXuXiXyXk 4 # } { @.$.$.} ] j $XqXI.,XP.e.3.=.;.;.3.*.3.&.F.<Xc './.f M >.n T.7X0X0X0X0X0X0X0X0X",
"iXiXiXiXiX^ = @ } } @.:.-.@.{ { { 2 v Z zXJ.c.e.j.V.B.h.j.B.z.L.sXf 1 K K n C oX0X0X0X0X0X0X0X0X0X0X",
"iXiXyXiX3X; 2 O } { $.:.-.# @.{ # 2 m xXJ.V.Z.z.x.b.l.x.b.C.b.w.t Y E 4.I , 8X0X8X0XqX0X0X0X0X0X0X0X",
"iXiXiXiXiX~ + # { # { } } @ { { [ X sXP.x.Z.B.j.z.c.C.d.x.C.k.X.; G P P r s 0X0X0X0X0X0X0X0X0X0X0X0X",
"uXiXiXuXiXtX~.z } { @ } } ] [ ] o <XjXz.v.z.z.z.t.g.g.e.l.z.z.h.X.= , H ; %X0X0X0X0X0X0X0X0X0X0X0X0X",
"iXiXiXiXiXiXiXiX).{ + @ ] ] O g Z cXN.B.C.c.z.t.O.6 = ..h.c.b.b.k.X.2.J * oX0X0X0X0X0X0X0X0X0X0X0X0X",
"iXiXiXiXiXuXuXuXuXuX*X[.[.XX^ b dXP.c.Z.C.B.x.t.| '.0X/ i.x.C.B.Z.g.hX>X  oX0X0X0X0X0X0X0X0X0X0X0X0X",
"iXiXiXiXiXiXiXuXuXuXuXuXuXuXU.>XzXN.B.C.C.x.y.O.(.0X0X0XT t.c.B.C.c.D.fXb '.0X0X0X0X0X0X0X0X0X0X0X0X",
"iXiXiXiXiXiXiXiXiXuXiXuXiX#Xc ,XvXB.Z.C.B.h.r. .:X:X0XqX~ i.b.C.b.C.d.lX,Xc |.0X0X0X0X0X0X0X0X0X0X0X",
"iXuXiXiXiXiXiXiXiXiXiXiXiXC Z cXJ.B.C.V.z.t.o..XiXqX0X:X-Xy d.b.C.C.c.H.xXm V 7X0X0X0X0X0X0X0X0X0X0X",
"iXiXiXiXiXiXiXiXiXiXiXiXiX^.C 5.o...w.g.e.+.) uXuX0X0XqX0X].X.l.b.B.v.e.D.0.c Q.0X0X0X0X0X0X0X0X0X0X",
"uXiXiXiXiXiXiXuXiXiXiXiXiXuX/.X $     X - ~ &XuXuXuXuX:X0X%Xe 6 7 7 6 $ X d Y.%X0XqX0X0X0X0X0X0X0X0X",
"iXiXiXiXuXiXiXiXiXiXiXiXuXiX(.e U e H G A iXiXuXuXiXuX0X0X0X0XOX  - , G G < E.qX0X0X0X0X0X0X0X0X0X0X",
"iXiXiXiXiXiXiXiXiXiXiXiXiXiX!.e U e K : XXiXuXiXiXiXuX0X0X0X0X0XA e H H E 5 s 8X0X0X0X0X0X0X0X0X0X0X",
"iXiXiXiXiXiXiXiXiXuXiXuXiX3X; I P 5 : B iXiXiXiXiXiXuX0X0X0X0X0X=Xh 5 H Y K l =X0X0XqX0X0X0X0X0X0X0X",
"iXiXiXiXiXiXiXiXiXiXiXiXiX3X% P j j % 2XiXiXiXiXiXiXuX0X0X0X0X0X0X=XB 4 R J $ Q.0X0X0X0X0X0X0X0X0X0X",
"iXiXiXiXiXiXiXiXiXiXpXiXiXXX0 a.u. .~ iXiXiXiXiXiXiXuX0X0X0X0X0X8X0XY.0 t 2.t h 7X0X0X0X0X0X0X0X0X0X",
"iXuXiXiXiXiXiXiXuXiXiXiX^ X.w.| zXaXY.iXuXiXiXuXiXiXiX0X0X0X0X0X0X0X-Xt L.J.e.8 %X0X0X0X0X0X0X0X0X0X",
"iXiXiXiXiXiXpXiXiXiX#XW o.7 ..&.).(.s tXiXuXuXpXiXyXrX0X0X7X0X0X0X0X8Xs sX4.X.u.D -X0X0X0X0X0X0X0X0X",
"iXiXuXiXiXiXpX5X`.a.u...w.s.f.p.=.V a OXiXiXiXiXuX0X0X0X0X0X0X0X0X0XE.a 3.t. .| 7 8 [.0X0X0X0X0X0X0X",
"uXuXiXtXeX4X[.q i.k.k.h.r.4.2.&.a.i u {.5X.X.X.X.X{.{.{.{.{.{.{.[.6XI.R 2.;.y.j.b.h.O.`.-X9X0X0X0X0X",
"uXiXeX( T ) _ h z z z H J L j D i F ) ) ) ` ` ` ` ` ` ` ` ' ' ` ` _ S < d 1.;.;.a.;.3.z F ( {.;X0X0X",
"iXiXuX4X1X1X1X#XT.~.~.~.~.^ ^ _ ` _ _ ' ' ` ' ' ' ` ` ' ` _ ) ) _ _ ) S S i a p p p a s ~.( ^ %X0X0X",
"iXiXiXuXiXyXrXwX8XwXiXiXiXuX4X4XeX4X4X.X.X.X.X.X}.}.}.}._.{.@X#X#X#X@X%X@X;X&X6X9X9X0X0XwX0X0X0X0X0X",
"iXuXiXuXiXrX:X0X8XrXiXiXiXiXiXiXiXuXiXiXiXuXuX0X8X0X0X0X0X0X0X0X8X0X0X0X8X0X0X0X0X0X0X0X0X0X0X0X0X0X",
"iXiXiXiXiXyX0X0X0XrXiXuXiXuXiXiXiXiXuXuXuXpXuXwX0X9X0X0X0X0X0X0X0X0X0X0X0X0X0X0X0X0X0X0X0X0X0X0X0X0X"
};
