/* XPM */
static char *beautiful_nature_environment_upside_down_background_image_492154_36961679417220[] = {
/* columns rows colors chars-per-pixel */
"50 50 29 1 ",
"  c #CECC96",
". c #CFCD9A",
"X c #D1CB97",
"o c #D1CE9A",
"O c #D4D19C",
"+ c #D8D29E",
"@ c #D3CFA0",
"# c #D5D2A2",
"$ c #D9D6A4",
"% c #DCD9A5",
"& c #DDDBAC",
"* c #DDDBB1",
"= c #E0DEAD",
"- c #E1DEB2",
"; c #DFE0B2",
": c #E2E1AE",
"> c #E3E2B3",
", c #E8E7B7",
"< c #E9E9B6",
"1 c #E7E3B8",
"2 c #EAE6BA",
"3 c #E7E9BA",
"4 c #ECEDBB",
"5 c #F0EFBF",
"6 c #EEF1BD",
"7 c #F1F3BD",
"8 c #F2EFC2",
"9 c #EFF1C0",
"0 c #F1F2C1",
/* pixels */
"XXXXXX X            .O%%;$;$;;%$%:::=::<::::1=====",
"ooXXXX              ..%%$;$;.;$;=%::::::::::::====",
"+OOXX       O       .%%%;$;%;;;;<::::::::::::-====",
"++OOXX  O     .   . ..;;%;;%;;3;<<:::::<:::::=:===",
"+++OOOXo  O  O    ..%%;%::;333<677<::===:::::-:===",
"+++OOXoO O OO O  ....%%;:;<<33<<<<7<<:,=::::-:-===",
"++++OO.    OO O OO .$%;%;;<<<<<<<7<74<,=::::-=-===",
"++OOOOooO OO OO  ....;;;::<<666674<<<7<<::::------",
"o+++O o OO O O O.#..#;:;<<6<66<67<<747<<1----**1--",
"O+++OO OOOoOO O ....#%:%:66<66677<4<7<<<>--2**1*-=",
"X+OOO O+OOOOOO O.#.#O;;;<66<66677744<<421=----1*--",
"++O+OO++O$++%OOO....O%;;<6<66667774<<544,-----1*--",
"++++O++%$$+%O%OO#..##$;;<7776777777444522--11111--",
"++X++++++%%%%OO%.#..#$$;<<7<<777777444452------*--",
"++X+++=:%%%%%%OO##...$%:<<<77<77777454552--1------",
"X++++%++%+++%O%%##.#.#%::7777777777745552-----1-1-",
"%%%%%%%%%$%%$O$%###..*;;;3966999070066822--11=--**",
"%%%:%%%%$O%%%$$$###..#;#;3999999070046881--->-=-11",
":%%%%%%%%%%$%%%O&##..;&&3369999007064984------=-*-",
":%%%%%%%%%$$$O%O#*##.##&;3699900069944412----->>--",
":%:%%%%%%%$$$O%%&#####&&=>4696990600442--2----::--",
":%:%%:%%O%%%$%%%#&*$###&&;369699990921>--22----=-*",
"%:%:%%%%%%$%%$%$&$*####&%&36999909941----1-----=--",
"%%:%%%%%%%%%%%O%$$$$*##&$&;69969999<>*>>111-----*-",
":%%:==%%:%%%%%$$#&*###$#$$-<9949993;;>>*->--=>==*-",
"%:%:=%:%%:%:%%%%&#&$###$#&>44446393;;;-*->--====--",
"::%%%:%=:%%%%%%%##*####$#;349449444;;>>--->==>==*-",
":%==:%:%%:%%%%%%#*#*####;3694499443;>;-*---=====--",
":%:%::%::%%%$&$$##&####&19994993091;------==%-==--",
"%:%:%%%%%;%%$$&$#####@##4443999304>;-----=-=====$$",
":%%%%:%%%$$$$$&$;####@#&4444949482------=-===--%--",
"%::%:%%%$$OOO$$######@#&4249999952-----==-==%=-&&&",
":=%%$*@@#####*+#######*#99334880,,>>>;>>:&=&&&=&**",
"=%%%$$@+@@#$$#$#########*9887094>>>&==&=&>===&&&**",
"%%++$#++@$@#$##$#####@@#>448443>>>=&&&=&::=&=&=&**",
"+++%#####@$@###+######@#=>>>,>=&&&:>>:;&&&&&&&=&**",
"%+$#$##+###@#############&&&===&;>>*>;&;-$$=&&*=**",
"%%###$##+@#@+@@########&#$&&&&=&&&:;>&;*--=*&&&***",
"++%####+@@#+@++@#@@#####&&&&&&&&*&**&&&&$*%***&&**",
"++++###@@@@@@#@@@@##@##&#&&&&&&&&;>&&**&%***%%*-**",
"@*@@####@#@@@@@@########$$&&*%*$******************",
"@+@*###@@@#@@@@@@@######$$%&%*$=************#*****",
"+*#####@##@@@@@@@#@####&$**$*$%*#***********%*%***",
"@@###@#@@@@#@@@@@@#@####$$$*$$$****@**@****$******",
"+@@+@###@#@#@@@@@@@@####*$&&&$%%****@*************",
"*@@*##@@@@#@@@@@@#####&$**&&&%*-*#********#*******",
"+@@@#@#@#@@#@@@@@@###&$&%&&&&&--******************",
"#@*+####@#@#@@@@#@###$&$&&&&&-11**@*@**#******-***",
"*@@@@+#@@+@@@#@+##@*##-*%%*-*---******************",
"+@*++@##@@@#@@@###@*#**%*%-**---*****************1"
};
